<?xml version="1.0" encoding="utf-8"?>
<!-- Generator: Adobe Illustrator 19.0.0, SVG Export Plug-In . SVG Version: 6.00 Build 0)  -->
<svg version="1.1" id="图层_1" xmlns="http://www.w3.org/2000/svg" xmlns:xlink="http://www.w3.org/1999/xlink" x="0px" y="0px"
	 viewBox="0 0 200.1 100" style="enable-background:new 0 0 200.1 100;" xml:space="preserve">
<style type="text/css">
	.st0{fill:#FFFFFF;}
</style>
<g id="XMLID_36_">
	<path id="XMLID_38_" class="st0" d="M56.2,45.3c-0.5-0.4-1.1-0.7-1.8-1c-0.7-0.3-1.4-0.5-2.1-0.7c-0.6-0.2-1.1-0.4-1.7-0.6
		c-0.5-0.2-1-0.5-1.4-0.7c-0.4-0.3-0.8-0.6-1-1c-0.3-0.4-0.4-0.9-0.4-1.4c0-0.5,0.1-1,0.3-1.4c0.2-0.4,0.5-0.7,0.9-0.9
		c0.4-0.2,0.8-0.4,1.2-0.5c0.5-0.1,0.9-0.2,1.4-0.2c0.5,0,1,0.1,1.5,0.2c0.5,0.2,0.9,0.4,1.2,0.7c0.4,0.3,0.6,0.7,0.9,1.2
		c0.2,0.5,0.4,1,0.4,1.6h1.9c0-0.4-0.1-0.8-0.2-1.2c-0.1-0.4-0.2-0.8-0.4-1.3c-0.2-0.4-0.4-0.8-0.7-1.1c-0.3-0.4-0.7-0.7-1.1-0.9
		c-0.4-0.3-0.9-0.5-1.5-0.6c-0.6-0.2-1.2-0.2-2-0.2c-0.8,0-1.6,0.1-2.3,0.3s-1.3,0.5-1.8,0.9c-0.5,0.4-0.9,0.9-1.2,1.5
		c-0.3,0.6-0.4,1.3-0.4,2c0,0.9,0.2,1.7,0.5,2.3c0.3,0.6,0.8,1.1,1.3,1.5c0.5,0.4,1.2,0.8,1.8,1c0.7,0.3,1.4,0.5,2,0.7
		c0.5,0.2,1.1,0.4,1.6,0.6c0.5,0.2,1,0.4,1.4,0.7c0.4,0.3,0.8,0.6,1,1c0.3,0.4,0.4,0.8,0.4,1.4c0,0.7-0.1,1.2-0.4,1.7
		c-0.2,0.5-0.6,0.8-0.9,1.1c-0.4,0.3-0.9,0.5-1.4,0.6c-0.5,0.1-1.1,0.2-1.6,0.2c-0.6,0-1.2-0.1-1.8-0.3s-1-0.5-1.4-0.9
		c-0.4-0.4-0.7-0.9-0.9-1.4c-0.2-0.5-0.4-1.2-0.4-1.8h-1.9c0,1,0.2,1.8,0.6,2.6c0.4,0.8,0.8,1.4,1.4,2c0.6,0.5,1.3,1,2,1.3
		c0.8,0.3,1.5,0.4,2.3,0.4c0.9,0,1.7-0.1,2.5-0.3c0.7-0.2,1.4-0.6,1.9-1c0.5-0.5,1-1,1.3-1.7c0.3-0.7,0.5-1.5,0.5-2.4
		c0-0.9-0.2-1.6-0.5-2.2C57.2,46.2,56.8,45.7,56.2,45.3z"/>
	<path id="XMLID_39_" class="st0" d="M73.6,48c0,0.8-0.1,1.5-0.4,2.1c-0.3,0.6-0.6,1.1-1.1,1.5c-0.4,0.4-0.9,0.7-1.5,0.9
		c-0.6,0.2-1.1,0.3-1.7,0.3c-0.5,0-1-0.1-1.6-0.3c-0.5-0.2-1-0.5-1.4-0.9c-0.4-0.4-0.7-0.9-1-1.5c-0.3-0.6-0.4-1.3-0.4-2V35.6h-1.8
		v12.2c0,1.1,0.2,2.1,0.6,2.9c0.4,0.8,0.8,1.5,1.4,2.1c0.6,0.6,1.2,1,2,1.3c0.7,0.3,1.5,0.4,2.2,0.4c0.8,0,1.5-0.1,2.3-0.4
		s1.5-0.7,2.1-1.3c0.6-0.6,1.1-1.2,1.5-2.1s0.6-1.8,0.6-2.8V35.6h-1.8V48z"/>
	<polygon id="XMLID_40_" class="st0" points="91.2,51.5 82.5,35.6 80.1,35.6 80.1,54 81.9,54 81.9,38.1 90.6,54 93,54 93,35.6 
		91.2,35.6 	"/>
	<polygon id="XMLID_44_" class="st0" points="120.9,35.6 114.6,54 116.5,54 118.4,48.4 119,46.6 122.1,37.4 125.1,46.6 125.7,48.4 
		127.6,54 129.5,54 123.3,35.6 	"/>
	<polygon id="XMLID_45_" class="st0" points="144.4,51.5 135.7,35.6 133.3,35.6 133.3,54 135.1,54 135.1,38.1 143.8,54 146.2,54 
		146.2,35.6 144.4,35.6 	"/>
	<polygon id="XMLID_47_" class="st0" points="169.3,52.2 169.3,45.4 178.3,45.4 178.3,43.6 169.3,43.6 169.3,37.4 178.9,37.4 
		178.9,35.6 167.5,35.6 167.5,54 179.3,54 179.3,52.2 	"/>
	<g id="XMLID_1_">
		<path id="XMLID_3_" class="st0" d="M159.9,53.9c-1.8,0-4.3-0.3-6.3-2c-1.9-1.5-2.8-3.9-2.8-6.9c0-3.1,0.9-5.4,2.8-7.1
			c3.3-2.9,8.2-2.3,8.4-2.3l-0.2,1.9c0,0-4.3-0.5-6.9,1.8c-1.4,1.3-2.1,3.1-2.1,5.6c0,2.5,0.7,4.3,2.1,5.4c2.6,2.2,6.9,1.4,6.9,1.4
			l0.4,1.9C162.1,53.7,161.2,53.9,159.9,53.9z"/>
	</g>
	<g id="XMLID_5_">
		<path id="XMLID_6_" class="st0" d="M47.7,60.1l8.8,0l0.2,0l0.7,0.5c-0.9,1.6-2.3,2.8-3.9,3.7c1.7,0.7,3.6,1.2,5.6,1.4
			c-0.2,0.2-0.4,0.7-0.6,1c-2.3-0.3-4.4-0.9-6.2-1.8c-1.9,0.9-4.1,1.4-6.3,1.7c-0.1-0.3-0.3-0.7-0.4-0.9c1.9-0.2,3.9-0.7,5.6-1.4
			c-1.4-0.8-2.5-1.8-3.4-3.1 M52.8,71.8h5.9v1H45.9v-1h5.9v-2.7h-4.3v-1h4.3v-2h1v2h4.3v1h-4.3V71.8z M48.9,61.1
			c0.8,1.1,2,2,3.4,2.7c1.4-0.7,2.6-1.6,3.4-2.7H48.9z"/>
		<path id="XMLID_12_" class="st0" d="M66.7,63c-0.3,0.6-0.7,1.3-1.2,1.9v8.5h-0.9V66c-0.6,0.7-1.2,1.3-1.8,1.8
			c-0.1-0.2-0.4-0.7-0.5-1c1.3-1,2.7-2.6,3.6-4.3L66.7,63z M66.5,59.6c-0.8,1.3-2.2,2.8-3.5,3.7c-0.1-0.2-0.4-0.6-0.5-0.8
			c1.2-0.8,2.5-2.1,3.1-3.2L66.5,59.6z M75.7,69.1h-2.2v3.1c0,0.6-0.1,0.9-0.5,1c-0.4,0.2-1.1,0.2-2.2,0.2c0-0.3-0.2-0.7-0.3-1
			c0.9,0,1.6,0,1.8,0c0.2,0,0.3-0.1,0.3-0.3v-3.1h-6v-0.9h6v-1.4h-5.6v-0.9h8.6v0.9h-2v1.4h2.2V69.1z M74.7,64.7h-6.9v-5.1h6.9V64.7
			z M68.6,69.4c0.7,0.6,1.5,1.6,1.9,2.2l-0.7,0.6c-0.4-0.6-1.1-1.6-1.8-2.3L68.6,69.4z M73.8,60.4h-5v1.3h5V60.4z M73.8,62.5h-5v1.4
			h5V62.5z"/>
		<path id="XMLID_34_" class="st0" d="M87.9,61.2v2.3h3.7v9.7h-1v-0.9h-9.3v1h-1v-9.8h3.6v-2.3h-4.3v-1h12.7v1H87.9z M90.7,71.4
			v-2.8c-0.1,0-0.1,0-0.2,0h-2c-1.1,0-1.4-0.3-1.4-1.4v-2.6h-2.2c-0.1,1.7-0.6,3.5-2.8,4.7c-0.1-0.2-0.4-0.6-0.6-0.8
			c2-1,2.4-2.5,2.5-3.9h-2.6v6.9H90.7z M87,61.2h-2.2v2.3H87V61.2z M87.9,64.5v2.6c0,0.4,0.1,0.5,0.6,0.5h1.8c0.1,0,0.2,0,0.3,0v-3
			H87.9z"/>
	</g>
	<path id="XMLID_11_" class="st0" d="M66.1,3.1C40.4,3.1,19.5,24,19.5,49.7c0,25.7,20.9,46.6,46.6,46.6c15.4,0,29.1-7.5,37.5-19
		h-2.5c-8.2,10.4-20.8,17-35,17c-24.6,0-44.6-20-44.6-44.6c0-24.6,20-44.6,44.6-44.6c11.8,0,22.5,4.6,30.4,12.1h2.9
		C90.9,8.5,79.1,3.1,66.1,3.1z"/>
	<g id="XMLID_50_">
		<path id="XMLID_62_" class="st0" d="M99,35.6h4.7c5.8,0,8.8,3.3,8.8,9.1s-3,9.2-8.8,9.2H99V35.6z M103.4,52.2
			c4.6,0,6.8-2.8,6.8-7.5s-2.2-7.4-6.8-7.4h-2.3v14.9H103.4z"/>
	</g>
</g>
</svg>
